<svg width="9" height="15" viewBox="0 0 9 15" fill="none" xmlns="http://www.w3.org/2000/svg">
<path d="M8.25061 7.35938C8.25061 7.55469 8.1803 7.72656 8.03186 7.875L1.83655 13.9297C1.70374 14.0703 1.53186 14.1406 1.32874 14.1406C0.922485 14.1406 0.609985 13.8359 0.609985 13.4297C0.609985 13.2266 0.695923 13.0547 0.820923 12.9219L6.50842 7.35938L0.820923 1.79688C0.695923 1.66406 0.609985 1.48438 0.609985 1.28906C0.609985 0.882812 0.922485 0.578125 1.32874 0.578125C1.53186 0.578125 1.70374 0.648438 1.83655 0.78125L8.03186 6.84375C8.1803 6.98438 8.25061 7.16406 8.25061 7.35938Z" fill="white" fill-opacity="0.2"/>
</svg>
