<svg width="8" height="13" viewBox="0 0 8 13" fill="none" xmlns="http://www.w3.org/2000/svg">
<path d="M1.21094 12.2158H6.78906C7.54492 12.2158 7.91406 11.8408 7.91406 11.0205V6.71973C7.91406 5.98145 7.60938 5.60059 6.98242 5.53613V4.05957C6.98242 1.85059 5.53516 0.78418 4 0.78418C2.46484 0.78418 1.01758 1.85059 1.01758 4.05957V5.56543C0.443359 5.65332 0.0859375 6.02832 0.0859375 6.71973V11.0205C0.0859375 11.8408 0.455078 12.2158 1.21094 12.2158ZM1.96094 3.93652C1.96094 2.46582 2.9043 1.68652 4 1.68652C5.0957 1.68652 6.03906 2.46582 6.03906 3.93652V5.53027L1.96094 5.53613V3.93652Z" fill="white" fill-opacity="0.7"/>
</svg>
