<svg width="12" height="15" viewBox="0 0 12 15" fill="none" xmlns="http://www.w3.org/2000/svg"><path d="M.264 8.624a5.6 5.6 0 0 0 5.611 5.618 5.593 5.593 0 0 0 5.605-5.618.507.507 0 0 0-.527-.527c-.298 0-.495.222-.495.527a4.57 4.57 0 0 1-4.583 4.596 4.577 4.577 0 0 1-4.59-4.596 4.57 4.57 0 0 1 4.59-4.583c.482 0 .933.038 1.308.127L5.285 6.047a.53.53 0 0 0-.146.362c0 .292.215.508.501.508q.237-.002.368-.146l2.616-2.628a.5.5 0 0 0 .158-.381c0-.14-.057-.28-.158-.381L6.008.728A.47.47 0 0 0 5.64.575a.503.503 0 0 0-.501.52c0 .134.05.261.14.363l1.688 1.669a6 6 0 0 0-1.092-.108A5.59 5.59 0 0 0 .264 8.624" fill="#fff" fill-opacity=".7"/></svg>