<svg width="14" height="17" viewBox="0 0 14 17" fill="none" xmlns="http://www.w3.org/2000/svg"><path d="M.508 9.906c0 2.852 1.531 3.899 5.969 6.399.203.11.398.156.523.156s.328-.047.523-.156c4.446-2.492 5.97-3.547 5.97-6.399V3.93c0-.82-.352-1.078-1.016-1.36-.922-.382-3.899-1.453-4.82-1.773A2.1 2.1 0 0 0 7 .68c-.219 0-.445.062-.648.117-.922.265-3.907 1.398-4.829 1.773-.656.274-1.015.54-1.015 1.36zm6.656 5.11V1.96c.04.008.086.023.149.047a133 133 0 0 0 4.68 1.71c.21.079.257.188.257.454v5.445c0 2.414-1.156 3.047-4.766 5.242a1.1 1.1 0 0 1-.32.157" fill="#fff" fill-opacity=".7"/></svg>