<svg width="40" height="18" viewBox="0 0 40 18" fill="none" xmlns="http://www.w3.org/2000/svg"><path d="M3.242 15.563h13.516c1.64 0 2.453-.813 2.453-2.422V3.6c0-1.609-.813-2.421-2.453-2.421H3.242C1.61 1.18.79 1.984.79 3.602v9.539q.002 2.424 2.453 2.422m.016-1.258c-.781 0-1.211-.414-1.211-1.227V3.664c0-.812.43-1.227 1.21-1.227h3.485v11.868zM16.742 2.438c.774 0 1.211.414 1.211 1.226v9.414c0 .813-.437 1.227-1.21 1.227H7.968V2.438zm-11.5 2.898a.46.46 0 0 0 .446-.438.454.454 0 0 0-.446-.437h-1.68a.447.447 0 0 0-.437.437c0 .227.203.438.438.438zm0 2.023a.46.46 0 0 0 .446-.445c0-.234-.211-.43-.446-.43h-1.68a.44.44 0 0 0-.437.43c0 .234.203.445.438.445zm0 2.016c.235 0 .446-.195.446-.43a.454.454 0 0 0-.446-.437h-1.68a.447.447 0 0 0-.437.437c0 .235.203.43.438.43z" fill="#fff" fill-opacity=".7"/><path fill="#fff" fill-opacity=".1" d="M26 0h1v18h-1z"/><path d="m33 8 3 3 3-3" stroke="#fff" stroke-opacity=".7" stroke-width="1.25" stroke-linecap="round" stroke-linejoin="round"/></svg>