<svg width="15" height="19" viewBox="0 0 15 19" fill="none" xmlns="http://www.w3.org/2000/svg"><path d="M7.492 12.484a.63.63 0 0 0 .625-.609V3.852L8.07 2.68l.524.554L9.78 4.5a.56.56 0 0 0 .422.188.55.55 0 0 0 .57-.555.55.55 0 0 0-.187-.406L7.946 1.18c-.157-.157-.29-.211-.454-.211-.156 0-.289.054-.453.21L4.4 3.728a.55.55 0 0 0-.18.406c0 .32.234.555.562.555.149 0 .32-.063.43-.188l1.18-1.266.53-.554-.046 1.172v8.023c0 .328.281.61.617.61m-4.476 6.118h8.96c1.633 0 2.454-.813 2.454-2.422V8.383c0-1.61-.82-2.422-2.453-2.422h-2.18v1.258h2.156c.774 0 1.219.422 1.219 1.234v7.656c0 .813-.445 1.235-1.219 1.235H3.031c-.781 0-1.21-.422-1.21-1.235V8.453c0-.812.429-1.234 1.21-1.234h2.164V5.96h-2.18c-1.632 0-2.452.812-2.452 2.422v7.797c0 1.61.82 2.422 2.453 2.422" fill="#fff" fill-opacity=".7"/></svg>