<svg width="16" height="15" viewBox="0 0 16 15" fill="none" xmlns="http://www.w3.org/2000/svg"><path d="M2.297 6.727h3.562c.993 0 1.493-.5 1.493-1.532V1.703C7.352.672 6.852.18 5.859.18H2.297C1.305.18.805.672.805 1.703v3.492c0 1.032.5 1.532 1.492 1.532m7.844 0h3.554c.992 0 1.492-.5 1.492-1.532V1.703c0-1.031-.5-1.523-1.492-1.523h-3.554c-1 0-1.5.492-1.5 1.523v3.492c0 1.032.5 1.532 1.5 1.532M2.313 5.625c-.274 0-.407-.14-.407-.43V1.703c0-.281.133-.422.407-.422h3.523c.273 0 .414.14.414.422v3.492c0 .29-.14.43-.414.43zm7.843 0c-.281 0-.414-.14-.414-.43V1.703c0-.281.133-.422.414-.422h3.524q.408 0 .406.422v3.492c0 .29-.133.43-.406.43zm-7.86 8.938H5.86c.993 0 1.493-.493 1.493-1.524v-3.5c0-1.023-.5-1.523-1.493-1.523H2.297c-.992 0-1.492.5-1.492 1.523v3.5c0 1.031.5 1.524 1.492 1.524m7.845 0h3.554c.992 0 1.492-.493 1.492-1.524v-3.5c0-1.023-.5-1.523-1.492-1.523h-3.554c-1 0-1.5.5-1.5 1.523v3.5c0 1.031.5 1.524 1.5 1.524M2.313 13.46c-.274 0-.407-.14-.407-.422V9.547c0-.29.133-.43.407-.43h3.523c.273 0 .414.14.414.43v3.492q-.002.422-.414.422zm7.843 0c-.281 0-.414-.14-.414-.422V9.547c0-.29.133-.43.414-.43h3.524c.273 0 .406.14.406.43v3.492q.002.422-.406.422z" fill="#fff" fill-opacity=".7"/></svg>